<?xml version="1.0" encoding="UTF-8"?><!DOCTYPE svg PUBLIC "-//W3C//DTD SVG 1.1//EN" "http://www.w3.org/Graphics/SVG/1.1/DTD/svg11.dtd"><svg viewBox="0 0 1497 136" xmlns="http://www.w3.org/2000/svg" xmlns:xlink="http://www.w3.org/1999/xlink"><style>:root>svg{display:none}:root>svg:target{display:block}</style><svg xml:space="preserve" style="shape-rendering:geometricPrecision;text-rendering:geometricPrecision;image-rendering:optimizeQuality;fill-rule:evenodd;clip-rule:evenodd" viewBox="0 0 1497 136" id="logo" xmlns="http://www.w3.org/2000/svg"><path d="M86.19 2.58h18.97l58.22 130.88H150.3c-18.82-8.87-37.46-17.66-56.05-26.42H52.42l-11.59 26.42H28.14l21.12-47.61L-.86 62.23l.07-15.76h67.51L86.19 2.58zm57.59 116.31-5.3-11.85h-19.85l25.15 11.85zM53.47 76.34l8.63-19.46H12.17l41.3 19.46zm40.78 30.7L59.53 90.68l-7.11 16.36h41.83zM63.67 81.15l54.96 25.89h19.85L98.43 13.12h-5.19L63.67 81.15zm191.15 52.31h-68.03V2.58h65.27c12.83 0 22.86 3.6 30.02 10.76 5.38 5.42 8.11 12.36 8.11 20.9 0 5.74-1.42 10.9-4.18 15.52-2.25 3.85-5.96 7.45-11.05 10.87v.87c7.52 3.38 13.01 7.74 16.5 13.08 4.4 6.33 6.58 13.38 6.58 21.19 0 10.65-3.53 19.52-10.65 26.61-8.29 7.38-19.15 11.08-32.57 11.08zm31.41-37.9c0-7.53-1.97-13.56-5.86-18.1-5.3-6.4-13.3-9.6-23.95-9.6h-57.17v55.61h55.79c10.58 0 18.54-2.98 23.85-8.98 4.9-5.31 7.34-11.63 7.34-18.93zm-8.29-60.05c0-6.54-2.11-11.88-6.29-16.1-5.2-4.4-12.17-6.58-20.97-6.58h-51.43v44.49h55.14c8.32 0 14.28-2.22 17.88-6.69 3.78-4.61 5.67-9.66 5.67-15.12zm27.66-22.68V2.58h121.72v10.25h-54.74v120.63h-12.25V12.83H305.6zM499.72.26c9.88 0 19.04 1.71 27.51 5.12 8.51 3.38 15.88 8.22 22.21 14.47 6.18 6.18 10.94 13.41 14.32 21.73 3.38 8.29 5.05 17.12 5.05 26.5 0 18.9-6.29 34.64-18.94 47.28-12.97 13.71-29.69 20.54-50.15 20.54-10.43 0-20.03-1.86-28.79-5.56-8.79-3.75-16.35-9.02-22.75-15.85-11.78-12.97-17.66-28.46-17.66-46.41 0-18.46 6.1-34.09 18.31-46.96 6.22-6.65 13.71-11.81 22.36-15.45 8.65-3.59 18.17-5.41 28.53-5.41zm-56.95 67.82c0 15.12 4.9 28.31 14.79 39.61 5.23 5.68 11.52 10.07 18.79 13.2 7.27 3.12 15.08 4.69 23.37 4.69 8.25 0 15.92-1.53 23.04-4.58 7.16-3.06 13.34-7.42 18.61-13.09 10-10.94 15.01-24.2 15.01-39.83 0-16.17-5.23-29.7-15.66-40.56-10.65-11.09-24.32-16.61-41-16.61-8.29 0-16.07 1.49-23.26 4.47-7.2 2.98-13.38 7.23-18.47 12.79-10.17 11.05-15.22 24.35-15.22 39.91zm208.8-65.5h111.69v130.88h-12.03V12.83H663.6v120.63h-12.03V2.58zM849.83.26c9.89 0 19.05 1.71 27.52 5.12 8.5 3.38 15.88 8.22 22.2 14.47 6.18 6.18 10.94 13.41 14.32 21.73 3.38 8.29 5.05 17.12 5.05 26.5 0 18.9-6.28 34.64-18.93 47.28-12.98 13.71-29.7 20.54-50.16 20.54-10.43 0-20.02-1.86-28.78-5.56-8.8-3.75-16.36-9.02-22.76-15.85-11.77-12.97-17.66-28.46-17.66-46.41 0-18.46 6.11-34.09 18.32-46.96 6.21-6.65 13.7-11.81 22.35-15.45 8.65-3.59 18.17-5.41 28.53-5.41zm-56.95 67.82c0 15.12 4.91 28.31 14.79 39.61 5.24 5.68 11.52 10.07 18.79 13.2 7.27 3.12 15.09 4.69 23.37 4.69 8.25 0 15.92-1.53 23.05-4.58 7.16-3.06 13.33-7.42 18.6-13.09 10-10.94 15.01-24.2 15.01-39.83 0-16.17-5.23-29.7-15.66-40.56-10.65-11.09-24.32-16.61-41-16.61-8.28 0-16.06 1.49-23.26 4.47-7.19 2.98-13.37 7.23-18.46 12.79-10.18 11.05-15.23 24.35-15.23 39.91zm169.84-65.5h85.05v120.67h14.17v10.07l-139.85.16.03-10.23c7.34 0 13.71-3.45 19.19-10.32 4.26-5.34 7.24-13.48 8.94-24.39l12.47-85.96zm72.84 10.25H972.5l-11.49 78.98c-1.2 8.11-2.94 14.47-5.23 19.12-2.25 4.65-5.56 8.76-9.89 12.32h89.67V12.83zm54.51-10.25v116.71l92.21-116.71h13.12v130.88h-11.08V16.76l-92.76 116.7h-13.3V2.58h11.81zm235.41 0h13.3l-57.49 109.26c-3.82 7.05-7.89 12.36-12.22 15.99-5.41 4.47-11.66 6.69-18.75 6.69-3.56 0-6.4-.22-8.5-.62l.83-8.54h2.87c4.69 0 8.94-.98 12.8-2.98 4.39-2.91 7.63-6.29 9.66-10.11l3.2-5.85-59.31-103.84h14.17l52.16 91.38h1.31l45.97-91.38zm29.62 0h17.45l54.12 75.53 53.64-75.53h16.83v130.88h-12.03V15.49h-1.71l-56.33 79.63h-2.33l-56.99-79.63h-1.67v117.97h-10.98V2.58z"/></svg><svg viewBox="0 0 32 32" id="social--instagram" xmlns="http://www.w3.org/2000/svg"><g data-name="Layer 6"><path d="M22 3H10a7 7 0 0 0-7 7v12a7 7 0 0 0 7 7h12a7 7 0 0 0 7-7V10a7 7 0 0 0-7-7Zm5 19a5 5 0 0 1-5 5H10a5 5 0 0 1-5-5V10a5 5 0 0 1 5-5h12a5 5 0 0 1 5 5Z"/><path d="M16 9.5a6.5 6.5 0 1 0 6.5 6.5A6.51 6.51 0 0 0 16 9.5Zm0 11a4.5 4.5 0 1 1 4.5-4.5 4.51 4.51 0 0 1-4.5 4.5Z"/><circle cx="23" cy="9" r="1"/></g></svg><svg viewBox="0 0 32 32" id="social--telegram" xmlns="http://www.w3.org/2000/svg"><path d="M24 28a1 1 0 0 1-.62-.22l-6.54-5.23a1.83 1.83 0 0 1-.13.16l-4 4a1 1 0 0 1-1.65-.36L8.2 18.72l-5.65-2.83a1 1 0 0 1 .09-1.82l26-10a1 1 0 0 1 1 .17 1 1 0 0 1 .33 1l-5 22a1 1 0 0 1-.65.72A1 1 0 0 1 24 28Zm-8.43-9 7.81 6.25 4.23-18.64-22.14 8.51 4 2a1 1 0 0 1 .49.54l2.45 6.54 2.89-2.88-1.9-1.53A1 1 0 0 1 13 19a1 1 0 0 1 .35-.78l7-6a1 1 0 1 1 1.3 1.52Z" data-name="Layer 21"/></svg><svg style="enable-background:new 0 0 24 24" viewBox="0 0 24 24" xml:space="preserve" id="social--vk" xmlns="http://www.w3.org/2000/svg"><path d="M22.789 19.001h-3.568a2.224 2.224 0 0 1-1.584-.656l-2.076-2.076a.915.915 0 0 0-1.56.646v.857a1.23 1.23 0 0 1-1.229 1.229H9.5c-2.29 0-5.968-5.144-8.651-9.459A5.658 5.658 0 0 1 0 6.553v-.255c0-.715.582-1.297 1.297-1.297H4.5a.5.5 0 0 1 .446.274c.703 1.388 2.685 5.149 3.407 5.872.184.183.361.291.473.269A.313.313 0 0 0 9 11.325V7.528c0-.529-.206-1.025-.58-1.399l-.274-.274a.499.499 0 0 1 .354-.854h4.406c.603 0 1.094.491 1.094 1.094v5.115c.277.128.773.274 1.165-.079.419-.38 1.464-2.463 2.66-5.308.21-.499.697-.822 1.241-.822h3.508c.786 0 1.426.64 1.426 1.427 0 .805-.277 1.595-.78 2.224L20 12.677v.618l3.644 3.644a1.206 1.206 0 0 1-.855 2.062zm-7.875-4c.511 0 .992.199 1.354.561l2.076 2.076c.231.231.551.363.877.363h3.568a.199.199 0 0 0 .193-.129.2.2 0 0 0-.045-.228l-3.79-3.79a.496.496 0 0 1-.147-.353v-1c0-.114.039-.224.109-.313l3.33-4.162A2.562 2.562 0 0 0 23 6.428a.427.427 0 0 0-.427-.427h-3.508a.344.344 0 0 0-.319.209c-.938 2.229-2.204 5.021-2.911 5.661-.927.839-2.122.391-2.623.038a.496.496 0 0 1-.212-.408V6.095a.094.094 0 0 0-.094-.094H9.581c.273.457.419.981.419 1.527v3.973c0 .091-.024.18-.071.257-.035.059-.361.575-.977.65-.44.056-.883-.131-1.306-.554C6.777 10.985 4.779 7.145 4.193 6H1.297A.3.3 0 0 0 1 6.298v.255c0 .874.242 1.725.699 2.461 3.446 5.543 6.435 8.987 7.801 8.987h3.271a.23.23 0 0 0 .229-.229v-.857c0-1.055.859-1.914 1.914-1.914z"/></svg><svg viewBox="0 0 32 32" xml:space="preserve" id="social--whatsapp" xmlns="http://www.w3.org/2000/svg"><path d="M17 4C10.383 4 5 9.383 5 16c0 2.003.503 3.974 1.473 5.754l-2.33 5.827a.999.999 0 0 0 1.3 1.299l5.837-2.335A11.948 11.948 0 0 0 17 28c6.617 0 12-5.383 12-12S23.617 4 17 4zm0 22a9.962 9.962 0 0 1-5.135-1.423.998.998 0 0 0-.906-.063l-4.094 1.644 1.522-3.808.109-.241a1.004 1.004 0 0 0-.009-.844 2.041 2.041 0 0 0-.103-.19A9.995 9.995 0 0 1 7 16c0-5.514 4.486-10 10-10s10 4.486 10 10-4.486 10-10 10zm6.555-7.832-3-2a1 1 0 0 0-1.262.125l-.615.615c-.704-.276-1.956-1.111-2.476-1.696l.505-.505a1 1 0 0 0 .125-1.262l-2-3A1.001 1.001 0 0 0 14 10h-1a.995.995 0 0 0-.651.242c-1.189 1.022-2.967 3.658-1.179 6.316 1.465 2.179 4.332 4.292 6.376 5.333.781.398 1.54.557 2.248.557 1.805 0 3.281-1.034 3.951-1.781A1 1 0 0 0 24 20v-1c0-.334-.167-.646-.445-.832zM22 19.572c-.553.466-1.92 1.366-3.546.537-1.879-.958-4.414-2.868-5.624-4.667-.997-1.483.046-2.881.574-3.442h.061l1.248 1.873-.42.42A.997.997 0 0 0 14 15c0 1.732 3.661 4 5 4 .266 0 .52-.105.707-.293l.42-.42L22 19.535v.037z"/></svg><svg xml:space="preserve" viewBox="0 0 50 50" id="support" xmlns="http://www.w3.org/2000/svg"><path fill="none" d="M0 0h50v50H0z"/><path d="M44 20a2 2 0 0 0-4 0v15a2 2 0 0 0 4 0V20zM28 47a2 2 0 0 0 0-4h-5a2 2 0 0 0 0 4h5z" fill="none" stroke="var(--main-color)" stroke-miterlimit="10" stroke-width="2"/><path d="M8 19C8 9.611 15.611 2 25 2s17 7.611 17 17M44 20c2.762 0 5 3.357 5 7.5 0 4.141-2.238 7.5-5 7.5" fill="none" stroke="var(--main-color)" stroke-miterlimit="10" stroke-width="2"/><path d="M6 20a2 2 0 0 1 4 0v15a2 2 0 0 1-4 0V20zM6 20c-2.761 0-5 3.357-5 7.5C1 31.641 3.239 35 6 35M42 37c0 5-3 8-8 8h-4" fill="none" stroke="var(--main-color)" stroke-miterlimit="10" stroke-width="2"/></svg></svg>