<?xml version="1.0" ?><svg enable-background="new 0 0 32 32" version="1.1" viewBox="0 0 32 32" xml:space="preserve" xmlns="http://www.w3.org/2000/svg" xmlns:xlink="http://www.w3.org/1999/xlink"><g id="_x33_0"/><g id="_x32_9"/><g id="_x32_8"/><g id="_x32_7"/><g id="_x32_6"/><g id="_x32_5"/><g id="_x32_4"/><g id="_x32_3"/><g id="_x32_2"/><g id="_x32_1"/><g id="_x32_0"/><g id="_x31_8"/><g id="_x31_7"/><g id="_x31_6"/><g id="_x31_5"/><g id="_x31_4"/><g id="_x31_3"/><g id="_x31_2"/><g id="_x31_1"/><g id="_x31_0"/><g id="_x39_"/><g id="_x38_"><path d="M17,4C10.383,4,5,9.383,5,16c0,2.003,0.503,3.974,1.473,5.754l-2.33,5.827c-0.148,0.371-0.062,0.795,0.222,1.078   c0.191,0.191,0.447,0.293,0.707,0.293c0.125,0,0.251-0.023,0.371-0.072l5.837-2.335C13.029,27.499,14.997,28,17,28   c6.617,0,12-5.383,12-12S23.617,4,17,4z M17,26c-1.812,0-3.587-0.492-5.135-1.423c-0.275-0.166-0.613-0.188-0.906-0.063   l-4.094,1.644l1.522-3.808l0.109-0.241c0.121-0.269,0.118-0.578-0.009-0.844c-0.027-0.058-0.063-0.124-0.103-0.19   C7.479,19.541,7,17.786,7,16c0-5.514,4.486-10,10-10s10,4.486,10,10S22.514,26,17,26z M23.555,18.168l-3-2   c-0.396-0.264-0.924-0.213-1.262,0.125l-0.615,0.615c-0.704-0.276-1.956-1.111-2.476-1.696l0.505-0.505   c0.337-0.337,0.39-0.865,0.125-1.262l-2-3C14.646,10.167,14.334,10,14,10h-1c-0.239,0-0.471,0.086-0.651,0.242   c-1.189,1.022-2.967,3.658-1.179,6.316c1.465,2.179,4.332,4.292,6.376,5.333c0.781,0.398,1.54,0.557,2.248,0.557   c1.805,0,3.281-1.034,3.951-1.781C23.909,20.484,24,20.246,24,20v-1C24,18.666,23.833,18.354,23.555,18.168z M22,19.572   c-0.553,0.466-1.92,1.366-3.546,0.537c-1.879-0.958-4.414-2.868-5.624-4.667c-0.997-1.483,0.046-2.881,0.574-3.442h0.061   l1.248,1.873l-0.42,0.42C14.105,14.48,14,14.735,14,15c0,1.732,3.661,4,5,4c0.266,0,0.52-0.105,0.707-0.293l0.42-0.42L22,19.535   V19.572z"/></g><g id="_x37_"/><g id="_x36_"/><g id="_x35_"/><g id="_x34_"/><g id="_x33_"/><g id="_x32_"/><g id="_x31_"/><g id="Guides"/></svg>