<?xml version="1.0" encoding="UTF-8"?>
<!DOCTYPE svg PUBLIC "-//W3C//DTD SVG 1.1//EN" "http://www.w3.org/Graphics/SVG/1.1/DTD/svg11.dtd">
<!-- Creator: CorelDRAW 2020 (64-Bit) -->
<svg xmlns="http://www.w3.org/2000/svg" xml:space="preserve" version="1.1" style="shape-rendering:geometricPrecision; text-rendering:geometricPrecision; image-rendering:optimizeQuality; fill-rule:evenodd; clip-rule:evenodd"
 xmlns:xlink="http://www.w3.org/1999/xlink"
 xmlns:xodm="http://www.corel.com/coreldraw/odm/2003">
 <defs>
 </defs>
 <g>
  <metadata/>
  <path d="M86.19 2.58l18.97 0 58.22 130.88 -13.08 0c-18.82,-8.87 -37.46,-17.66 -56.05,-26.42l-41.83 0 -11.59 26.42 -12.69 0 21.12 -47.61 -50.12 -23.62 0.07 -15.76 67.51 0 19.47 -43.89zm57.59 116.31l-5.3 -11.85 -19.85 0 25.15 11.85zm-90.31 -42.55l8.63 -19.46 -49.93 0 41.3 19.46zm40.78 30.7l-34.72 -16.36 -7.11 16.36 41.83 0zm-30.58 -25.89l54.96 25.89 19.85 0 -40.05 -93.92 -5.19 0 -29.57 68.03zm191.15 52.31l-68.03 0 0 -130.88 65.27 0c12.83,0 22.86,3.6 30.02,10.76 5.38,5.42 8.11,12.36 8.11,20.9 0,5.74 -1.42,10.9 -4.18,15.52 -2.25,3.85 -5.96,7.45 -11.05,10.87l0 0.87c7.52,3.38 13.01,7.74 16.5,13.08 4.4,6.33 6.58,13.38 6.58,21.19 0,10.65 -3.53,19.52 -10.65,26.61 -8.29,7.38 -19.15,11.08 -32.57,11.08zm31.41 -37.9c0,-7.53 -1.97,-13.56 -5.86,-18.1 -5.3,-6.4 -13.3,-9.6 -23.95,-9.6l-57.17 0 0 55.61 55.79 0c10.58,0 18.54,-2.98 23.85,-8.98 4.9,-5.31 7.34,-11.63 7.34,-18.93zm-8.29 -60.05c0,-6.54 -2.11,-11.88 -6.29,-16.1 -5.2,-4.4 -12.17,-6.58 -20.97,-6.58l-51.43 0 0 44.49 55.14 0c8.32,0 14.28,-2.22 17.88,-6.69 3.78,-4.61 5.67,-9.66 5.67,-15.12zm27.66 -22.68l0 -10.25 121.72 0 0 10.25 -54.74 0 0 120.63 -12.25 0 0 -120.63 -54.73 0zm194.12 -12.57c9.88,0 19.04,1.71 27.51,5.12 8.51,3.38 15.88,8.22 22.21,14.47 6.18,6.18 10.94,13.41 14.32,21.73 3.38,8.29 5.05,17.12 5.05,26.5 0,18.9 -6.29,34.64 -18.94,47.28 -12.97,13.71 -29.69,20.54 -50.15,20.54 -10.43,0 -20.03,-1.86 -28.79,-5.56 -8.79,-3.75 -16.35,-9.02 -22.75,-15.85 -11.78,-12.97 -17.66,-28.46 -17.66,-46.41 0,-18.46 6.1,-34.09 18.31,-46.96 6.22,-6.65 13.71,-11.81 22.36,-15.45 8.65,-3.59 18.17,-5.41 28.53,-5.41zm-56.95 67.82c0,15.12 4.9,28.31 14.79,39.61 5.23,5.68 11.52,10.07 18.79,13.2 7.27,3.12 15.08,4.69 23.37,4.69 8.25,0 15.92,-1.53 23.04,-4.58 7.16,-3.06 13.34,-7.42 18.61,-13.09 10,-10.94 15.01,-24.2 15.01,-39.83 0,-16.17 -5.23,-29.7 -15.66,-40.56 -10.65,-11.09 -24.32,-16.61 -41,-16.61 -8.29,0 -16.07,1.49 -23.26,4.47 -7.2,2.98 -13.38,7.23 -18.47,12.79 -10.17,11.05 -15.22,24.35 -15.22,39.91zm208.8 -65.5l111.69 0 0 130.88 -12.03 0 0 -120.63 -87.63 0 0 120.63 -12.03 0 0 -130.88zm198.26 -2.32c9.89,0 19.05,1.71 27.52,5.12 8.5,3.38 15.88,8.22 22.2,14.47 6.18,6.18 10.94,13.41 14.32,21.73 3.38,8.29 5.05,17.12 5.05,26.5 0,18.9 -6.28,34.64 -18.93,47.28 -12.98,13.71 -29.7,20.54 -50.16,20.54 -10.43,0 -20.02,-1.86 -28.78,-5.56 -8.8,-3.75 -16.36,-9.02 -22.76,-15.85 -11.77,-12.97 -17.66,-28.46 -17.66,-46.41 0,-18.46 6.11,-34.09 18.32,-46.96 6.21,-6.65 13.7,-11.81 22.35,-15.45 8.65,-3.59 18.17,-5.41 28.53,-5.41zm-56.95 67.82c0,15.12 4.91,28.31 14.79,39.61 5.24,5.68 11.52,10.07 18.79,13.2 7.27,3.12 15.09,4.69 23.37,4.69 8.25,0 15.92,-1.53 23.05,-4.58 7.16,-3.06 13.33,-7.42 18.6,-13.09 10,-10.94 15.01,-24.2 15.01,-39.83 0,-16.17 -5.23,-29.7 -15.66,-40.56 -10.65,-11.09 -24.32,-16.61 -41,-16.61 -8.28,0 -16.06,1.49 -23.26,4.47 -7.19,2.98 -13.37,7.23 -18.46,12.79 -10.18,11.05 -15.23,24.35 -15.23,39.91zm169.84 -65.5l85.05 0 0 120.67 14.17 0 0 10.07 -139.85 0.16 0.03 -10.23c7.34,0 13.71,-3.45 19.19,-10.32 4.26,-5.34 7.24,-13.48 8.94,-24.39l12.47 -85.96zm72.84 10.25l-63.06 0 -11.49 78.98c-1.2,8.11 -2.94,14.47 -5.23,19.12 -2.25,4.65 -5.56,8.76 -9.89,12.32l89.67 0 0 -110.42zm54.51 -10.25l0 116.71 92.21 -116.71 13.12 0 0 130.88 -11.08 0 0 -116.7 -92.76 116.7 -13.3 0 0 -130.88 11.81 0zm235.41 0l13.3 0 -57.49 109.26c-3.82,7.05 -7.89,12.36 -12.22,15.99 -5.41,4.47 -11.66,6.69 -18.75,6.69 -3.56,0 -6.4,-0.22 -8.5,-0.62l0.83 -8.54 2.87 0c4.69,0 8.94,-0.98 12.8,-2.98 4.39,-2.91 7.63,-6.29 9.66,-10.11l3.2 -5.85 -59.31 -103.84 14.17 0 52.16 91.38 1.31 0 45.97 -91.38zm29.62 0l17.45 0 54.12 75.53 53.64 -75.53 16.83 0 0 130.88 -12.03 0 0 -117.97 -1.71 0 -56.33 79.63 -2.33 0 -56.99 -79.63 -1.67 0 0 117.97 -10.98 0 0 -130.88z"/>
 </g>
</svg>
